HIERARCHY
ROOT Hips
{
  OFFSET -118.716 76.6958 -116.339
  CHANNELS 6 Xposition Yposition Zposition Zrotation Xrotation Yrotation
  JOINT ToSpine
  {
    OFFSET -2.69724 7.43032 -0.144315
    CHANNELS 3 Zrotation Xrotation Yrotation
    JOINT Spine
    {
      OFFSET -0.0310711 10.7595 1.96963
      CHANNELS 3 Zrotation Xrotation Yrotation
      JOINT Spine1
      {
        OFFSET 13.1342 3.43533 0.764692
        CHANNELS 3 Zrotation Xrotation Yrotation
        JOINT Neck
        {
          OFFSET 29.8703 7.82586 -0.130764
          CHANNELS 3 Zrotation Xrotation Yrotation
          JOINT Head
          {
            OFFSET 9.52751 0.295786 -0.907742
            CHANNELS 3 Zrotation Xrotation Yrotation
            End Site
            {
              OFFSET 16.4037 0.713936 2.7358
            }
          }
        }
        JOINT LeftShoulder
        {
          OFFSET 27.5574 4.95586 2.47156
          CHANNELS 3 Zrotation Xrotation Yrotation
          JOINT LeftArm
          {
            OFFSET 1.20734 -0.998971 20.1238
            CHANNELS 3 Zrotation Xrotation Yrotation
            JOINT LeftForeArm
            {
              OFFSET 26.8049 -0.0536703 -0.155908
              CHANNELS 3 Zrotation Xrotation Yrotation
              JOINT LeftHand
              {
                OFFSET 26.6817 0 0.320147
                CHANNELS 3 Zrotation Xrotation Yrotation
                End Site
                {
                  OFFSET 18.6119 0 0.382219
                }
              }
            }
          }
        }
        JOINT RightShoulder
        {
          OFFSET 27.5927 4.71444 -2.65209
          CHANNELS 3 Zrotation Xrotation Yrotation
          JOINT RightArm
          {
            OFFSET 2.83739 -1.17114 -18.7564
            CHANNELS 3 Zrotation Xrotation Yrotation
            JOINT RightForeArm
            {
              OFFSET 28.839 -0.0548439 1.22491
              CHANNELS 3 Zrotation Xrotation Yrotation
              JOINT RightHand
              {
                OFFSET 26.5114 0 -0.101894
                CHANNELS 3 Zrotation Xrotation Yrotation
                End Site
                {
                  OFFSET 18.2168 0 0
                }
              }
            }
          }
        }
      }
    }
  }
  JOINT LeftUpLeg
  {
    OFFSET -4.76168 -1.9167 -10.2353
    CHANNELS 3 Zrotation Xrotation Yrotation
    JOINT LeftLeg
    {
      OFFSET 2.55951 -42.0585 -8.02213
      CHANNELS 3 Zrotation Xrotation Yrotation
      JOINT LeftFoot
      {
        OFFSET 3.16357 -42.5282 -3.95426
        CHANNELS 3 Zrotation Xrotation Yrotation
        JOINT LeftToeBase
        {
          OFFSET 0.346054 -6.02161 12.8035
          CHANNELS 3 Zrotation Xrotation Yrotation
          End Site
          {
            OFFSET 0.134235 -1.35082 5.13018
          }
        }
      }
    }
  }
  JOINT RightUpLeg
  {
    OFFSET -4.94151 -1.41743 10.6446
    CHANNELS 3 Zrotation Xrotation Yrotation
    JOINT RightLeg
    {
      OFFSET -2.56294 -42.0364 -7.94377
      CHANNELS 3 Zrotation Xrotation Yrotation
      JOINT RightFoot
      {
        OFFSET -3.0952 -42.555 -4.02241
        CHANNELS 3 Zrotation Xrotation Yrotation
        JOINT RightToeBase
        {
          OFFSET -0.0828122 -6.13587 12.8035
          CHANNELS 3 Zrotation Xrotation Yrotation
          End Site
          {
            OFFSET -0.131328 -1.35082 5.13018
          }
        }
      }
    }
  }
}
MOTION
Frames:	11
Frame Time:	0.0333333
-16.4582 94.9912 -71.6726 65.9007 -19.1627 -12.4847 -70.1915 0 88.8779 86.5931 68.927 -5.40531 0.508717 17.5891 3.82626 -137.542 32.0707 165.052 -150.295 72.9124 -168.673 0.218008 -14.481 -29.6776 -82.6511 37.5344 -87.1297 14.3674 13.3239 -47.5477 0.420957 0.000575478 0.35866 -1.8941 5.46561 49.0178 -60.8333 -39.4739 72.7524 5.41684 -10.453 27.8568 0.58676 0.000331078 0.0646654 -57.8548 -5.36414 93.4844 -1.29566 34.1933 -16.293 4.6759 -14.7531 -1.26075 4.99022 -12.0013 8.69093 -25.7067 -5.57269 81.2019 1.51107 30.2402 0.535441 -8.45052 -4.47255 1.26385 2.32525 -19.9643 -9.16874 
-12.218 94.1507 -69.1881 66.504 -17.4405 -12.0206 -70.1915 0 88.8779 82.2127 68.032 -2.03048 2.49735 16.417 4.2321 -137.289 32.895 162.892 -149.412 73.9897 -170.046 0.099631 -15.0334 -29.9236 -80.3619 34.4149 -91.9804 13.2153 12.5819 -46.6969 0.420957 0.000575478 0.35866 -1.8797 5.4047 49.1419 -58.3405 -41.1625 72.8375 5.04583 -10.0659 27.3671 0.58676 0.000331078 0.0646654 -61.6496 -4.78225 94.0632 -0.918495 33.377 -19.3346 4.44181 -15.0794 -1.27405 5.82155 -13.5335 9.81518 -26.2181 -5.03063 85.6413 1.28706 19.605 2.10475 -4.25957 -5.02955 0.899727 2.38038 -21.0428 -12.5117 
-7.96733 93.1533 -66.6322 67.8134 -16.513 -11.2884 -70.1915 0 88.8779 82.9653 67.5012 -3.42037 3.35084 15.6004 4.76226 -136.791 33.7772 161.029 -148.477 75.1047 -171.443 0.0188178 -15.4054 -30.0751 -78.5146 31.5913 -96.3554 13.0091 13.0985 -45.1118 0.420957 0.000575478 0.35866 -1.87791 5.32971 49.5724 -56.799 -41.9997 72.3367 5.21816 -11.0136 26.9194 0.58676 0.000331078 0.0646654 -65.9848 -3.47744 94.5044 -0.875988 33.2788 -21.1525 4.34367 -15.1157 -1.27626 6.95757 -15.392 9.15193 -26.4406 -5.43532 86.1439 0.474606 15.0797 6.78583 -3.55793 -5.49368 0.86219 1.85502 -23.723 -21.6586 
-3.52181 92.0952 -63.7842 68.6756 -15.4986 -10.7264 -70.1915 0 88.8779 83.0471 66.9325 -4.18505 3.94432 14.7015 5.38375 -135.648 34.2144 159.223 -147.346 75.8641 -172.466 0.00380128 -15.5821 -29.6812 -76.9083 29.8042 -99.6676 12.6814 13.584 -43.3474 0.420957 0.000575478 0.35866 -1.87358 5.14048 50.7109 -55.574 -41.6797 71.7801 5.17976 -11.8987 26.4757 0.58676 0.000331078 0.0646654 -69.2895 -2.92708 92.9728 -1.35321 34.3893 -21.4313 3.60243 -15.3489 -1.29311 7.19165 -15.7063 7.49717 -25.4363 -6.74469 85.7275 1.19495 17.0604 3.4444 -5.05466 -6.37538 1.12342 1.96755 -25.7204 -18.4311 
1.21026 91.133 -60.6537 68.6903 -15.0873 -9.9261 -70.1915 0 88.8779 81.9144 66.374 -2.73717 4.28271 13.8966 6.23804 -135.483 34.4883 159.142 -147.021 76.1114 -173.49 0.022592 -15.5396 -29.4662 -76.7451 29.7824 -100.393 13.4168 14.909 -42.4005 0.420957 0.000575478 0.35866 -1.85478 4.99043 51.3848 -57.6014 -40.2877 69.7132 4.88115 -14.3641 25.4926 0.58676 0.000331078 0.0646654 -71.5716 -0.58896 90.1465 -2.61633 36.1952 -18.8106 2.89517 -13.8577 -1.21116 7.87918 -16.8741 6.75733 -23.4524 -6.25945 85.535 1.47185 24.2077 0.268243 -14.7145 -2.13839 1.93572 1.93862 -31.7292 -17.4231 
6.16208 90.2665 -57.2625 68.3242 -15.6199 -8.3259 -70.1915 0 88.8779 81.2878 65.7051 -0.306293 4.65262 13.1629 7.02483 -136.113 34.3122 159.914 -143.109 75.4077 -177.848 -0.00104597 -15.5875 -29.7505 -77.9963 31.2181 -97.8981 14.2854 15.8412 -42.5581 0.420957 0.000575478 0.35866 -1.84785 4.92201 51.7342 -62.4903 -37.346 66.6449 4.6091 -19.4402 24.2752 0.58676 0.000331078 0.0646654 -73.0428 1.07651 86.9549 -3.59407 38.8732 -17.0272 1.93175 -7.15321 -0.785579 11.7721 -23.4011 8.18183 -21.8156 -4.24643 84.5352 1.0726 32.3431 -2.54421 -7.16935 -3.54527 1.11562 2.39038 -23.9369 -10.6921 
10.9241 89.9315 -54.0242 68.2519 -16.8194 -6.2773 -70.1915 0 88.8779 81.9807 65.13 1.51084 5.52886 12.6371 7.79504 -137.671 34.0408 162.219 -144.351 74.687 -177.404 -0.0576367 -15.6398 -30.6912 -78.765 32.7376 -94.3971 14.4209 15.8203 -42.8712 0.420957 0.000575478 0.35866 -1.8785 5.05108 51.3926 -66.3793 -34.5511 65.28 4.21271 -21.688 23.5958 0.58676 0.000331078 0.0646654 -72.6623 4.67164 87.3356 -3.80736 43.9214 -14.3005 -0.939955 -1.29227 -0.0497885 11.7371 -23.559 6.39552 -21.6138 -1.47584 83.6453 1.30751 38.7102 -2.09742 -5.40898 -1.25923 0.894598 2.27896 -20.7994 -13.2571 
15.727 89.4411 -51.0816 68.5916 -19.3447 -5.59274 -70.1915 0 88.8779 86.1552 65.4536 -0.12196 4.93502 13.2381 7.40629 -138.496 33.4082 164.421 -147.445 73.9128 -174.602 -0.185544 -16.0143 -31.6056 -76.863 33.8899 -91.9817 12.2295 13.7966 -41.8483 0.420957 0.000575478 0.35866 -1.89169 5.25976 50.2607 -68.906 -33.0484 66.1398 3.79311 -22.3481 23.1352 0.58676 0.000331078 0.0646654 -71.0583 6.01127 88.7768 -4.69434 51.526 -11.5563 -5.54191 7.34865 1.54326 10.0484 -20.4712 5.2909 -22.0331 0.928261 83.262 1.80346 44.961 -2.31745 -4.36811 -2.88516 0.815764 2.24195 -14.6503 -12.7775 
20.1553 89.7928 -48.0212 69.9376 -21.4474 -5.46926 -70.1915 0 88.8779 92.4679 66.1796 -5.69208 3.70537 14.1383 6.89817 -138.624 32.254 164.779 -146.846 72.6301 -175.356 -0.139422 -15.794 -31.6324 -74.1518 35.4361 -91.636 11.5447 13.7657 -40.2431 0.420957 0.000575478 0.35866 -1.86215 5.3525 49.1588 -69.6042 -33.9279 68.6793 4.4367 -19.0573 23.9545 0.58676 0.000331078 0.0646654 -68.2623 6.16455 89.4539 -6.10533 60.3837 -7.31768 -8.12503 12.024 2.71769 2.60412 -8.13023 9.59413 -25.2694 1.82903 81.501 2.23434 48.2414 -1.84191 -6.95082 -6.15253 1.15927 1.9933 -10.5303 -10.3771 
24.4998 90.4123 -45.1638 70.2801 -22.9282 -5.28434 -70.1915 0 88.8779 96.4695 66.7379 -7.76493 2.75797 15.2677 5.36818 -138.381 31.0481 164.94 -145.932 71.3026 -176.41 -0.146587 -15.7688 -31.8717 -74.3615 37.8393 -89.5565 13.0615 16.2887 -39.162 0.420957 0.000575478 0.35866 -1.8974 5.51464 48.7796 -66.5866 -35.4413 73.0216 5.31894 -12.7226 26.3934 0.58676 0.000331078 0.0646654 -62.508 6.81067 90.0474 -9.29089 69.2036 0.481866 -6.24278 9.66182 1.99494 3.8418 -10.2399 10.1169 -28.7086 4.01839 81.9185 2.34587 49.2467 -1.97248 -7.82597 -9.43712 1.25002 2.02996 -7.39292 -11.5993 
29.1201 91.5173 -42.3542 70.1782 -25.1192 -7.07411 -70.1915 0 88.8779 97.01 68.1048 -7.94303 2.37383 17.0071 3.94792 -138.213 29.925 166.187 -147.34 70.1356 -174.936 -0.142137 -15.6364 -32.3446 -73.229 40.257 -88.2033 12.4147 16.903 -36.7054 0.420957 0.000575478 0.35866 -1.87136 5.6392 47.6216 -69.2124 -35.596 74.6177 6.59196 -11.3792 30.1902 0.58676 0.000331078 0.0646654 -56.7639 5.53655 92.1732 -12.837 74.2486 4.80668 -1.73839 7.47634 0.817156 5.93659 -13.6981 9.53476 -32.9011 5.91209 85.299 2.10204 48.6188 -2.94174 -9.14173 -11.7206 1.31887 2.07656 -6.04906 -12.3505 
